<?xml version="1.0" encoding="UTF-8"?>
<svg width="512" height="512" viewBox="0 0 512 512" fill="none" xmlns="http://www.w3.org/2000/svg">
  <circle cx="256" cy="256" r="248" fill="#4169E1" stroke="white" stroke-width="16"/>
  <path d="M256 120C276.987 120 294 137.013 294 158C294 178.987 276.987 196 256 196C235.013 196 218 178.987 218 158C218 137.013 235.013 120 256 120ZM362 242V282H302V392H262V322H250V392H210V282H150V242H362ZM256 80C213.6 80 174.3 95.9 144.4 125.6C114.5 155.3 98.4 194.7 98.4 237.1C98.4 279.5 114.3 318.8 144 348.7C173.7 378.6 213.1 394.7 255.5 394.7C297.9 394.7 337.2 378.8 367.1 349.1C397 319.4 413.1 280 413.1 237.6C413.1 195.2 397.2 155.9 367.5 126C337.8 96.1 298.4 80 256 80Z" fill="white"/>
</svg> 